<?xml version="1.0" encoding="utf-8"?>
<!-- Generator: Adobe Illustrator 27.3.1, SVG Export Plug-In . SVG Version: 6.00 Build 0)  -->
<svg version="1.1" id="Camada_1" xmlns="http://www.w3.org/2000/svg" xmlns:xlink="http://www.w3.org/1999/xlink" x="0px" y="0px"
	 viewBox="0 0 285.7 291.4" style="enable-background:new 0 0 285.7 291.4;" xml:space="preserve">
<style type="text/css">
	.st0{fill:#E62450;}
</style>
<g id="n638Rn_00000078013626780110207360000011804052630165519033_">
	<g>
		<path class="st0" d="M91.3,67.3c32.6,11.7,64.7,23,96.6,35c16.6,6.3,33.7,11.4,50,18.2c12.5,5.2,25.7,8.6,38.1,14.2
			c1.8,0.8,2.9,1.2,2.9,3.6c0,30.8,0.5,61.6,0.1,92.4c-0.1,14.5-6,27.2-16.5,37.2c-11,10.5-24.1,16.3-39.8,16.2
			c-54.9-0.2-109.9,0.1-164.8-0.3c-12.2-0.1-22.7-5.6-32.1-13.5c-7.7-6.6-12.3-15.4-16.7-24.1c-2.3-4.6-2-10.2-1.9-15.5
			c0.1-11.2,0-22.3,0-33.5c0-3.4,0.7-5.1,4.7-3.2c5.8,2.8,11.8,5,18.2,6.1c3.9,0.7,5.8,2.8,5.5,7.2c-0.4,8.6-1,17.2-0.2,25.7
			c0.6,6.8,4.8,12.3,10,16.9c6.2,5.5,13.7,5.4,21,5.4c51.6,0.2,103.2-0.1,154.9,0.1c11.9,0,20.7-4.8,26.8-14.4
			c2.4-3.8,2.8-8.7,2.8-13.2c0.1-23,0-46,0.1-68.9c0-3.2-0.8-4.1-4.2-5.1c-8.8-2.5-17.3-6.1-25.9-9.3c-21.7-8-43.4-16-65.1-23.9
			c-20.6-7.5-41.2-15.1-62-22.4c-2.9-1-2.4-2.8-2.4-4.6C91.2,85,91.3,76.4,91.3,67.3z"/>
		<path class="st0" d="M141.5,11.9c27.5,0,55-0.3,82.5,0.1c19.2,0.3,35,7.8,45.8,24.4c5.8,8.9,8.6,18.6,9.1,28.9c0.4,11,0,22,0.2,33
			c0,3.4-0.7,4.5-4.2,3.2c-6.6-2.4-13.4-4.5-20.1-6.7c-2.8-0.9-4.1-2.4-3.9-5.6c0.3-7-0.1-14,0.2-21c0.6-14.8-14.3-28.7-28-28.6
			c-53.6,0.7-107.3,0.3-160.9,0.4c-12,0-22.2,7-25.8,19.1c-1,3.2-0.7,6.4-0.7,9.6c-0.1,22.3,0,44.6-0.2,67c0,4.1,1.6,5.9,5.1,7.1
			c12,4,24.1,7.6,35.7,12.5c16,6.8,32.7,11.7,48.9,18.1c22,8.7,44.3,16.4,66.6,24.3c2.7,0.9,3.3,2,3.3,4.5c-0.1,7.5-0.2,15,0,22.5
			c0.1,3.6-1.3,3.9-4.1,2.9c-9.6-3.5-19.1-7-28.7-10.5c-7.1-2.6-14.5-4.6-21.4-7.7c-8.6-3.9-17.8-5.9-26.3-9.6
			c-11.1-4.7-22.9-7.3-33.6-12.7c-7.5-3.8-15.8-5.3-23.5-8.3c-15-5.7-30.2-10.8-45.1-17c-6.3-2.6-5.2-5.6-5.2-9.5
			c-0.1-30-0.3-60,0.1-90c0.2-15,7-27.7,18.3-37.2c11.2-9.5,24.5-14,39.6-13.7c25.5,0.5,51,0.1,76.5,0.1
			C141.5,11.8,141.5,11.9,141.5,11.9z"/>
	</g>
</g>
</svg>
