<?xml version="1.0" encoding="utf-8"?>
<!-- Generator: Adobe Illustrator 27.3.1, SVG Export Plug-In . SVG Version: 6.00 Build 0)  -->
<svg version="1.1" id="Camada_1" xmlns="http://www.w3.org/2000/svg" xmlns:xlink="http://www.w3.org/1999/xlink" x="0px" y="0px"
	 viewBox="0 0 115.7 118" style="enable-background:new 0 0 115.7 118;" xml:space="preserve">
<style type="text/css">
	.st0{fill:#E62450;}
</style>
<g id="n638Rn_00000078013626780110207360000011804052630165519033_">
	<g>
		<path class="st0" d="M39.1,28.2c12.4,4.5,24.6,8.7,36.8,13.3c6.3,2.4,12.8,4.3,19,6.9c4.8,2,9.8,3.3,14.5,5.4
			c0.7,0.3,1.1,0.4,1.1,1.4c0,11.7,0.2,23.4,0.1,35.2c-0.1,5.5-2.3,10.3-6.3,14.2c-4.2,4-9.2,6.2-15.1,6.2
			c-20.9-0.1-41.8,0-62.7-0.1c-4.6,0-8.7-2.1-12.2-5.1c-2.9-2.5-4.7-5.9-6.4-9.2c-0.9-1.7-0.8-3.9-0.7-5.9c0-4.2,0-8.5,0-12.7
			c0-1.3,0.3-1.9,1.8-1.2c2.2,1.1,4.5,1.9,6.9,2.3c1.5,0.3,2.2,1.1,2.1,2.7c-0.2,3.3-0.4,6.6-0.1,9.8c0.2,2.6,1.8,4.7,3.8,6.4
			c2.3,2.1,5.2,2.1,8,2.1c19.6,0.1,39.3,0,58.9,0c4.5,0,7.9-1.8,10.2-5.5c0.9-1.4,1.1-3.3,1.1-5c0-8.7,0-17.5,0-26.2
			c0-1.2-0.3-1.6-1.6-1.9c-3.4-1-6.6-2.3-9.9-3.5c-8.3-3-16.5-6.1-24.8-9.1C55.7,45.6,47.9,42.8,40,40c-1.1-0.4-0.9-1.1-0.9-1.8
			C39.1,34.9,39.1,31.6,39.1,28.2z"/>
		<path class="st0" d="M58.2,7.1c10.5,0,20.9-0.1,31.4,0c7.3,0.1,13.3,3,17.4,9.3c2.2,3.4,3.3,7.1,3.5,11c0.2,4.2,0,8.4,0.1,12.6
			c0,1.3-0.3,1.7-1.6,1.2c-2.5-0.9-5.1-1.7-7.7-2.6c-1.1-0.3-1.5-0.9-1.5-2.1c0.1-2.7,0-5.3,0.1-8c0.2-5.6-5.4-10.9-10.6-10.9
			C68.8,18,48.4,17.8,28,17.9c-4.6,0-8.4,2.7-9.8,7.3c-0.4,1.2-0.3,2.4-0.3,3.7c0,8.5,0,17-0.1,25.5c0,1.6,0.6,2.2,1.9,2.7
			c4.6,1.5,9.2,2.9,13.6,4.8c6.1,2.6,12.5,4.5,18.6,6.9c8.4,3.3,16.9,6.3,25.4,9.3c1,0.4,1.3,0.8,1.2,1.7c0,2.9-0.1,5.7,0,8.6
			c0,1.4-0.5,1.5-1.6,1.1c-3.6-1.3-7.3-2.7-10.9-4c-2.7-1-5.5-1.8-8.1-2.9c-3.3-1.5-6.8-2.3-10-3.6c-4.2-1.8-8.7-2.8-12.8-4.8
			c-2.9-1.4-6-2-9-3.1c-5.7-2.2-11.5-4.1-17.2-6.5c-2.4-1-2-2.1-2-3.6c0-11.4-0.1-22.8,0-34.2c0.1-5.7,2.7-10.5,7-14.2
			c4.3-3.6,9.3-5.3,15.1-5.2C38.8,7.2,48.5,7,58.2,7.1C58.2,7.1,58.2,7.1,58.2,7.1z"/>
	</g>
</g>
</svg>
